<svg viewBox="0 0 541.2 110.208" width="8057px" height="1845.137129960105px" xmlns="http://www.w3.org/2000/svg" xmlns:xlink="http://www.w3.org/1999/xlink" preserveAspectRatio="none"><defs></defs><style>.companyName {fill:#FFFFFF;fill-opacity:1;}.icon1 {fill:#fc5fa1;fill-opacity:0;}.icon2 {fill:#fc5fa1;fill-opacity:1;}.icon3 {fill:#FFFFFFF;fill-opacity:1;}.shapeStroke-str {stroke:#313131;stroke-opacity:1;}</style><g opacity="1" transform="rotate(0 0 12.71629999999999)">
<svg width="96.9391" height="94.7754" x="0" y="12.71629999999999" version="1.1" preserveAspectRatio="none" viewBox="20 22 160 156.01800537109375">
  <g transform="matrix(1 0 0 1 0 0)"><g><path d="M99.937 165.24c3.547 0 6.422 2.86 6.422 6.389s-2.875 6.389-6.422 6.389-6.422-2.86-6.422-6.389 2.875-6.389 6.422-6.389zm0-23.804c3.929 0 7.115 3.168 7.115 7.077s-3.185 7.077-7.115 7.077-7.115-3.168-7.115-7.077c.001-3.908 3.186-7.077 7.115-7.077zm23.739 0c3.929 0 7.115 3.168 7.115 7.077s-3.185 7.077-7.115 7.077c-3.929 0-7.115-3.168-7.115-7.077.001-3.908 3.186-7.077 7.115-7.077zm-47.771 0c3.929 0 7.115 3.168 7.115 7.077s-3.185 7.077-7.115 7.077-7.115-3.168-7.115-7.077c.001-3.908 3.186-7.077 7.115-7.077zm24.032-23.256c4.352 0 7.881 3.51 7.881 7.839 0 4.329-3.528 7.839-7.881 7.839s-7.881-3.51-7.881-7.839c.001-4.33 3.529-7.839 7.881-7.839zm23.739 0c4.352 0 7.881 3.51 7.881 7.839 0 4.329-3.528 7.839-7.881 7.839s-7.881-3.51-7.881-7.839c.001-4.33 3.529-7.839 7.881-7.839zm23.742 0c4.352 0 7.881 3.51 7.881 7.839 0 4.329-3.528 7.839-7.881 7.839s-7.881-3.51-7.881-7.839c0-4.33 3.528-7.839 7.881-7.839zm-95.326 0c4.352 0 7.881 3.51 7.881 7.839 0 4.329-3.528 7.839-7.881 7.839s-7.881-3.51-7.881-7.839c.001-4.33 3.529-7.839 7.881-7.839zm23.813 0c4.352 0 7.881 3.51 7.881 7.839 0 4.329-3.528 7.839-7.881 7.839s-7.881-3.51-7.881-7.839c0-4.33 3.529-7.839 7.881-7.839zm95.386-24.77c4.81 0 8.709 3.879 8.709 8.664s-3.899 8.664-8.709 8.664-8.709-3.879-8.709-8.664c-.001-4.785 3.898-8.664 8.709-8.664zm-23.873 0c4.81 0 8.709 3.879 8.709 8.664s-3.899 8.664-8.709 8.664-8.709-3.879-8.709-8.664c-.001-4.785 3.899-8.664 8.709-8.664zm-23.742 0c4.81 0 8.709 3.879 8.709 8.664s-3.899 8.664-8.709 8.664-8.709-3.879-8.709-8.664 3.899-8.664 8.709-8.664zm-23.739 0c4.81 0 8.709 3.879 8.709 8.664s-3.899 8.664-8.709 8.664-8.709-3.879-8.709-8.664 3.899-8.664 8.709-8.664zm-24.032 0c4.81 0 8.709 3.879 8.709 8.664s-3.899 8.664-8.709 8.664-8.709-3.879-8.709-8.664 3.899-8.664 8.709-8.664zm-47.196 0c4.81 0 8.709 3.879 8.709 8.664s-3.899 8.664-8.709 8.664S20 106.858 20 102.074c0-4.785 3.899-8.664 8.709-8.664zm23.383 0c4.81 0 8.709 3.879 8.709 8.664s-3.899 8.664-8.709 8.664-8.709-3.879-8.709-8.664 3.899-8.664 8.709-8.664zm95.326-24.319c5.488 0 9.937 4.425 9.937 9.885s-4.449 9.885-9.937 9.885-9.937-4.425-9.937-9.885 4.449-9.885 9.937-9.885zm-71.513-.292c5.488 0 9.937 4.425 9.937 9.885 0 5.459-4.449 9.885-9.937 9.885s-9.937-4.425-9.937-9.885c0-5.459 4.449-9.885 9.937-9.885zm47.771 0c5.488 0 9.937 4.425 9.937 9.885 0 5.459-4.449 9.885-9.937 9.885s-9.937-4.425-9.937-9.885c0-5.459 4.449-9.885 9.937-9.885zm-71.584 0c5.488 0 9.937 4.425 9.937 9.885 0 5.459-4.449 9.885-9.937 9.885s-9.937-4.425-9.937-9.885c0-5.459 4.449-9.885 9.937-9.885zm47.845 0c5.488 0 9.937 4.425 9.937 9.885 0 5.459-4.449 9.885-9.937 9.885S90 84.144 90 78.684c0-5.459 4.449-9.885 9.937-9.885zM75.905 46.053c5.488 0 9.937 4.425 9.937 9.885s-4.449 9.885-9.937 9.885-9.937-4.425-9.937-9.885 4.449-9.885 9.937-9.885zm47.771 0c5.488 0 9.937 4.425 9.937 9.885s-4.449 9.885-9.937 9.885-9.937-4.425-9.937-9.885 4.449-9.885 9.937-9.885zm-23.739 0c5.488 0 9.937 4.425 9.937 9.885s-4.449 9.885-9.937 9.885S90 61.398 90 55.938s4.449-9.885 9.937-9.885z" data-color="1" class="icon1"></path><path d="M111.025 33.029c0 6.091-4.964 11.029-11.088 11.029-6.124 0-11.088-4.938-11.088-11.029S93.813 22 99.937 22c6.124 0 11.088 4.938 11.088 11.029z" data-color="2" class="icon2"></path><path opacity=".8" d="M75.905 46.053c5.488 0 9.937 4.425 9.937 9.885s-4.449 9.885-9.937 9.885-9.937-4.425-9.937-9.885 4.449-9.885 9.937-9.885zm47.771 0c5.488 0 9.937 4.425 9.937 9.885s-4.449 9.885-9.937 9.885-9.937-4.425-9.937-9.885 4.449-9.885 9.937-9.885zm-23.739 0c5.488 0 9.937 4.425 9.937 9.885s-4.449 9.885-9.937 9.885S90 61.398 90 55.938s4.449-9.885 9.937-9.885z" data-color="2" class="icon2"></path><path opacity=".65" d="M147.418 69.091c5.488 0 9.937 4.425 9.937 9.885s-4.449 9.885-9.937 9.885-9.937-4.425-9.937-9.885 4.449-9.885 9.937-9.885zm-71.513-.292c5.488 0 9.937 4.425 9.937 9.885 0 5.459-4.449 9.885-9.937 9.885s-9.937-4.425-9.937-9.885c0-5.459 4.449-9.885 9.937-9.885zm47.771 0c5.488 0 9.937 4.425 9.937 9.885 0 5.459-4.449 9.885-9.937 9.885s-9.937-4.425-9.937-9.885c0-5.459 4.449-9.885 9.937-9.885zm-71.584 0c5.488 0 9.937 4.425 9.937 9.885 0 5.459-4.449 9.885-9.937 9.885s-9.937-4.425-9.937-9.885c0-5.459 4.449-9.885 9.937-9.885zm47.845 0c5.488 0 9.937 4.425 9.937 9.885 0 5.459-4.449 9.885-9.937 9.885S90 84.144 90 78.684c0-5.459 4.449-9.885 9.937-9.885z" data-color="2" class="icon2"></path><path opacity=".5" d="M171.291 93.41c4.81 0 8.709 3.879 8.709 8.664s-3.899 8.664-8.709 8.664-8.709-3.879-8.709-8.664 3.898-8.664 8.709-8.664zm-23.873 0c4.81 0 8.709 3.879 8.709 8.664s-3.899 8.664-8.709 8.664-8.709-3.879-8.709-8.664 3.899-8.664 8.709-8.664zm-23.742 0c4.81 0 8.709 3.879 8.709 8.664s-3.899 8.664-8.709 8.664-8.709-3.879-8.709-8.664 3.899-8.664 8.709-8.664zm-23.739 0c4.81 0 8.709 3.879 8.709 8.664s-3.899 8.664-8.709 8.664-8.709-3.879-8.709-8.664 3.899-8.664 8.709-8.664zm-24.032 0c4.81 0 8.709 3.879 8.709 8.664s-3.899 8.664-8.709 8.664-8.709-3.879-8.709-8.664 3.899-8.664 8.709-8.664zm-47.196 0c4.81 0 8.709 3.879 8.709 8.664s-3.899 8.664-8.709 8.664S20 106.859 20 102.074s3.899-8.664 8.709-8.664zm23.383 0c4.81 0 8.709 3.879 8.709 8.664s-3.899 8.664-8.709 8.664-8.709-3.879-8.709-8.664 3.899-8.664 8.709-8.664z" data-color="2" class="icon2"></path><path opacity=".35" d="M99.937 118.18c4.352 0 7.881 3.51 7.881 7.839s-3.528 7.839-7.881 7.839-7.881-3.51-7.881-7.839 3.529-7.839 7.881-7.839zm23.739 0c4.352 0 7.881 3.51 7.881 7.839s-3.528 7.839-7.881 7.839-7.881-3.51-7.881-7.839 3.529-7.839 7.881-7.839zm23.742 0c4.352 0 7.881 3.51 7.881 7.839s-3.528 7.839-7.881 7.839-7.881-3.51-7.881-7.839 3.528-7.839 7.881-7.839zm-95.326 0c4.352 0 7.881 3.51 7.881 7.839s-3.528 7.839-7.881 7.839-7.881-3.51-7.881-7.839 3.529-7.839 7.881-7.839zm23.813 0c4.352 0 7.881 3.51 7.881 7.839s-3.528 7.839-7.881 7.839-7.881-3.51-7.881-7.839 3.529-7.839 7.881-7.839z" data-color="2" class="icon2"></path><path opacity=".2" d="M99.937 141.436c3.929 0 7.115 3.168 7.115 7.077s-3.185 7.077-7.115 7.077-7.115-3.168-7.115-7.077c.001-3.908 3.186-7.077 7.115-7.077zm23.739 0c3.929 0 7.115 3.168 7.115 7.077s-3.185 7.077-7.115 7.077c-3.929 0-7.115-3.168-7.115-7.077.001-3.908 3.186-7.077 7.115-7.077zm-47.771 0c3.929 0 7.115 3.168 7.115 7.077s-3.185 7.077-7.115 7.077-7.115-3.168-7.115-7.077c.001-3.908 3.186-7.077 7.115-7.077z" data-color="2" class="icon2"></path></g></g>
</svg>
</g><g opacity="1" transform="rotate(0 127.2074 28.611699999999985)">
<svg width="353.9926" height="52.9846" x="127.2074" y="28.611699999999985" version="1.1" preserveAspectRatio="none" viewBox="1.56 -31.48 213.51999999999998 31.96">
  <g transform="matrix(1 0 0 1 0 0)" class="companyName"><path d="M22.24-6.24L22.24-14.44L28.16-14.44L28.16-3.08Q25.88-1.36 22.88-0.44Q19.88 0.48 16.84 0.48L16.84 0.48Q12.48 0.48 9-1.38Q5.52-3.24 3.54-6.54Q1.56-9.84 1.56-14L1.56-14Q1.56-18.16 3.54-21.46Q5.52-24.76 9.04-26.62Q12.56-28.48 16.96-28.48L16.96-28.48Q20.64-28.48 23.64-27.24Q26.64-26 28.68-23.64L28.68-23.64L24.52-19.80Q21.52-22.96 17.28-22.96L17.28-22.96Q14.60-22.96 12.52-21.84Q10.44-20.72 9.28-18.68Q8.12-16.64 8.12-14L8.12-14Q8.12-11.40 9.28-9.36Q10.44-7.32 12.50-6.18Q14.56-5.04 17.20-5.04L17.20-5.04Q20-5.04 22.24-6.24L22.24-6.24Z M39.68-18.68Q40.80-20.24 42.70-21.04Q44.60-21.84 47.08-21.84L47.08-21.84L47.08-16.08Q46.04-16.16 45.68-16.16L45.68-16.16Q43-16.16 41.48-14.66Q39.96-13.16 39.96-10.16L39.96-10.16L39.96 0L33.72 0L33.72-21.52L39.68-21.52L39.68-18.68Z M59.36-21.84Q64.36-21.84 67.04-19.46Q69.72-17.08 69.72-12.28L69.72-12.28L69.72 0L63.88 0L63.88-2.68Q62.12 0.32 57.32 0.32L57.32 0.32Q54.84 0.32 53.02-0.52Q51.20-1.36 50.24-2.84Q49.28-4.32 49.28-6.20L49.28-6.20Q49.28-9.20 51.54-10.92Q53.80-12.64 58.52-12.64L58.52-12.64L63.48-12.64Q63.48-14.68 62.24-15.78Q61-16.88 58.52-16.88L58.52-16.88Q56.80-16.88 55.14-16.34Q53.48-15.80 52.32-14.88L52.32-14.88L50.08-19.24Q51.84-20.48 54.30-21.16Q56.76-21.84 59.36-21.84L59.36-21.84ZM58.88-3.88Q60.48-3.88 61.72-4.62Q62.96-5.36 63.48-6.80L63.48-6.80L63.48-9L59.20-9Q55.36-9 55.36-6.48L55.36-6.48Q55.36-5.28 56.30-4.58Q57.24-3.88 58.88-3.88L58.88-3.88Z M90.32-21.52L96.32-21.52L87.24 0L80.80 0L71.76-21.52L78.20-21.52L84.16-6.88L90.32-21.52Z M113.72-21.52L119.72-21.52L110.64 0L104.20 0L95.16-21.52L101.60-21.52L107.56-6.88L113.72-21.52Z M122.28 0L122.28-21.52L128.52-21.52L128.52 0L122.28 0ZM125.40-24.52Q123.68-24.52 122.60-25.52Q121.52-26.52 121.52-28L121.52-28Q121.52-29.48 122.60-30.48Q123.68-31.48 125.40-31.48L125.40-31.48Q127.12-31.48 128.20-30.52Q129.28-29.56 129.28-28.12L129.28-28.12Q129.28-26.56 128.20-25.54Q127.12-24.52 125.40-24.52L125.40-24.52Z M143.64 0.48Q140.32 0.48 137.22-0.42Q134.12-1.32 132.24-2.76L132.24-2.76L134.44-7.64Q136.24-6.32 138.72-5.52Q141.20-4.72 143.68-4.72L143.68-4.72Q146.44-4.72 147.76-5.54Q149.08-6.36 149.08-7.72L149.08-7.72Q149.08-8.72 148.30-9.38Q147.52-10.04 146.30-10.44Q145.08-10.84 143-11.32L143-11.32Q139.80-12.08 137.76-12.84Q135.72-13.60 134.26-15.28Q132.80-16.96 132.80-19.76L132.80-19.76Q132.80-22.20 134.12-24.18Q135.44-26.16 138.10-27.32Q140.76-28.48 144.60-28.48L144.60-28.48Q147.28-28.48 149.84-27.84Q152.40-27.20 154.32-26L154.32-26L152.32-21.08Q148.44-23.28 144.56-23.28L144.56-23.28Q141.84-23.28 140.54-22.40Q139.24-21.52 139.24-20.08L139.24-20.08Q139.24-18.64 140.74-17.94Q142.24-17.24 145.32-16.56L145.32-16.56Q148.52-15.80 150.56-15.04Q152.60-14.28 154.06-12.64Q155.52-11 155.52-8.20L155.52-8.20Q155.52-5.80 154.18-3.82Q152.84-1.84 150.16-0.68Q147.48 0.48 143.64 0.48L143.64 0.48Z M169.76 0.32Q166.36 0.32 163.66-1.10Q160.96-2.52 159.44-5.04Q157.92-7.56 157.92-10.76L157.92-10.76Q157.92-13.96 159.44-16.48Q160.96-19 163.66-20.42Q166.36-21.84 169.76-21.84L169.76-21.84Q173.16-21.84 175.84-20.42Q178.52-19 180.04-16.48Q181.56-13.96 181.56-10.76L181.56-10.76Q181.56-7.56 180.04-5.04Q178.52-2.52 175.84-1.10Q173.16 0.32 169.76 0.32L169.76 0.32ZM169.76-4.80Q172.16-4.80 173.70-6.42Q175.24-8.04 175.24-10.76L175.24-10.76Q175.24-13.48 173.70-15.10Q172.16-16.72 169.76-16.72L169.76-16.72Q167.36-16.72 165.80-15.10Q164.24-13.48 164.24-10.76L164.24-10.76Q164.24-8.04 165.80-6.42Q167.36-4.80 169.76-4.80L169.76-4.80Z M192.56-21.96L192.56-21.04L198.08-21.04L198.08-16.24L192.72-16.24L192.72 0L186.48 0L186.48-16.24L183.16-16.24L183.16-21.04L186.48-21.04L186.48-22Q186.48-25.68 188.66-27.84Q190.84-30 194.80-30L194.80-30Q196.20-30 197.46-29.70Q198.72-29.40 199.56-28.84L199.56-28.84L197.92-24.32Q196.84-25.08 195.40-25.08L195.40-25.08Q192.56-25.08 192.56-21.96L192.56-21.96Z M213.40-5.44L215.08-1.04Q214.16-0.36 212.82-0.02Q211.48 0.32 210 0.32L210 0.32Q206.16 0.32 204.06-1.64Q201.96-3.60 201.96-7.40L201.96-7.40L201.96-16.24L198.64-16.24L198.64-21.04L201.96-21.04L201.96-26.28L208.20-26.28L208.20-21.04L213.56-21.04L213.56-16.24L208.20-16.24L208.20-7.48Q208.20-6.12 208.90-5.38Q209.60-4.64 210.88-4.64L210.88-4.64Q212.36-4.64 213.40-5.44L213.40-5.44Z"></path></g>
</svg>
</g><g opacity="1" transform="rotate(0 106.0136 0)">
<svg width="4.2387" height="110.208" x="106.0136" y="0" version="1.1" preserveAspectRatio="" viewBox="0 0 4.2387 110.208">
  <rect x="0" y="0" width="4.2387" height="110.208" class="companyName shapeStroke-str" style="stroke-width:0;" rx="0px" ry="0px"></rect>
</svg>
</g></svg>